<svg width="20" height="21" viewBox="0 0 20 21" fill="none" xmlns="http://www.w3.org/2000/svg">
<g id="dot-pending (1) 1" clip-path="url(#clip0_102_366)">
<path id="Vector" d="M10 0C4.48583 0 0 4.71012 0 10.5C0 16.2899 4.48583 21 10 21C15.5142 21 20 16.2899 20 10.5C20 4.71012 15.5142 0 10 0ZM10 19.25C5.405 19.25 1.66667 15.3247 1.66667 10.5C1.66667 5.67525 5.405 1.75 10 1.75C14.595 1.75 18.3333 5.67525 18.3333 10.5C18.3333 15.3247 14.595 19.25 10 19.25ZM11.25 10.5C11.25 11.2245 10.69 11.8125 10 11.8125C9.31 11.8125 8.75 11.2245 8.75 10.5C8.75 9.7755 9.31 9.1875 10 9.1875C10.69 9.1875 11.25 9.7755 11.25 10.5ZM15 10.5C15 11.2245 14.44 11.8125 13.75 11.8125C13.06 11.8125 12.5 11.2245 12.5 10.5C12.5 9.7755 13.06 9.1875 13.75 9.1875C14.44 9.1875 15 9.7755 15 10.5ZM7.5 10.5C7.5 11.2245 6.94 11.8125 6.25 11.8125C5.56 11.8125 5 11.2245 5 10.5C5 9.7755 5.56 9.1875 6.25 9.1875C6.94 9.1875 7.5 9.7755 7.5 10.5Z" fill="currentColor"/>
</g>
<defs>
<clipPath id="clip0_102_366">
<rect width="20" height="21" fill="white"/>
</clipPath>
</defs>
</svg>
