<svg width="21" height="21" viewBox="0 0 21 21" fill="none" xmlns="http://www.w3.org/2000/svg">
<g id="messages (4) 1" clip-path="url(#clip0_999_291)">
<path id="Vector" d="M16.625 3.5H15.6616C15.2548 1.50587 13.4873 0 11.375 0H4.375C1.96263 0 0 1.96262 0 4.375V15.6222C0 16.317 0.380625 16.9522 0.99225 17.2795C1.2705 17.4291 1.57587 17.5026 1.88037 17.5026C2.24437 17.5026 2.6075 17.3967 2.92162 17.1876L5.50287 15.4665C6.1075 17.1596 7.72625 18.375 9.625 18.375H14.6099L18.0784 20.6876C18.3934 20.8976 18.7556 21.0035 19.1196 21.0035C19.4241 21.0035 19.7286 20.9291 20.0077 20.7795C20.6202 20.4522 21 19.817 21 19.1222V7.875C21 5.46262 19.0374 3.5 16.625 3.5ZM1.95125 15.7316C1.93463 15.7421 1.88563 15.7736 1.81825 15.7377C1.74913 15.701 1.74913 15.6424 1.74913 15.6231V4.375C1.74913 2.92775 2.92688 1.75 4.37413 1.75H11.3741C12.8214 1.75 13.9991 2.92775 13.9991 4.375V10.5C13.9991 11.9472 12.8214 13.125 11.3741 13.125H6.12413C5.838 13.125 5.65075 13.2641 5.62975 13.2781L1.95125 15.7316ZM19.25 19.1231C19.25 19.1415 19.25 19.201 19.1809 19.2377C19.1117 19.2736 19.0645 19.2421 19.0487 19.2316L15.3606 16.772C15.2171 16.6766 15.0483 16.625 14.875 16.625H9.625C8.484 16.625 7.51188 15.8935 7.1505 14.875H11.375C13.7874 14.875 15.75 12.9124 15.75 10.5V5.25H16.625C18.0723 5.25 19.25 6.42775 19.25 7.875V19.1231Z" fill="currentColor"/>
</g>
<defs>
<clipPath id="clip0_999_291">
<rect width="21" height="21" fill="white"/>
</clipPath>
</defs>
</svg>
