<svg width="21" height="21" viewBox="0 0 21 21" fill="none" xmlns="http://www.w3.org/2000/svg">
<path id="Vector" d="M6.888 14.7796L6.93613 15.75H13.9388L13.8871 14.7359C13.8871 12.7899 12.7374 11.3663 11.7425 10.5C12.355 9.96187 13.6342 8.62575 13.8609 6.69025C13.9029 6.33063 13.7865 5.96663 13.5433 5.69362C13.2921 5.41187 12.9316 5.25 12.5536 5.25H8.23462C7.85662 5.25 7.49612 5.41187 7.245 5.69362C7.00175 5.96663 6.88538 6.33063 6.92738 6.69025C7.1575 8.67125 8.52512 10.045 9.04225 10.5C8.043 11.3663 6.88713 12.7899 6.888 14.7796ZM8.76575 7H12.0225C11.6987 8.16375 10.8281 8.98188 10.5394 9.22688L10.3932 9.352L10.2427 9.22425C9.95487 8.981 9.08775 8.16725 8.76575 7ZM10.2427 11.7758L10.3924 11.648L10.5385 11.7723C11.1213 12.2693 11.7941 13.02 12.0409 13.9991H8.72812C8.9705 13.0322 9.65213 12.2745 10.2419 11.7749L10.2427 11.7758ZM7.93012 2.10787L7.43575 0.422625C8.39213 0.14175 9.38787 0 10.3941 0V1.75C9.5375 1.75 8.71237 1.87862 7.93012 2.10787ZM3.78613 4.77575L2.45875 3.62513C3.115 2.86738 3.8745 2.20937 4.71625 1.66688L5.66738 3.14387C4.96475 3.59625 4.33213 4.14663 3.78613 4.77575ZM2.44125 14.133L0.84175 14.8645C0.424375 13.9528 0.14175 12.9867 0 11.9936L1.743 11.7451C1.86287 12.586 2.1 13.3866 2.44125 14.133ZM1.743 9.25575L0 9.00725C0.140875 8.015 0.424375 7.049 0.840875 6.13725L2.44038 6.86875C2.09913 7.61425 1.86287 8.41575 1.743 9.25575ZM20.8941 10.5C20.8941 16.2899 16.184 21 10.3941 21C7.25025 21 4.298 19.6087 2.29425 17.1824L3.6435 16.0685C5.31388 18.0906 7.77437 19.2509 10.3941 19.2509C15.2189 19.2509 19.1441 15.3256 19.1441 10.5009C19.1441 8.14888 18.1755 5.90275 16.5191 4.26825V7.00088H14.7691V3.50087C14.7691 2.53575 15.554 1.75087 16.5191 1.75087H20.0191V3.50087H18.1991C19.9062 5.411 20.8941 7.90125 20.8941 10.5009V10.5Z" fill="currentColor"/>
</svg>
