<svg width="20" height="20" viewBox="0 0 20 20" fill="none" xmlns="http://www.w3.org/2000/svg">
<path id="Vector" d="M15.8333 0H4.16667C1.86917 0 0 1.86917 0 4.16667V15.8333C0 18.1308 1.86917 20 4.16667 20H15.8333C18.1308 20 20 18.1308 20 15.8333V4.16667C20 1.86917 18.1308 0 15.8333 0ZM5.41667 15.8333C4.72667 15.8333 4.16667 15.2733 4.16667 14.5833C4.16667 13.8933 4.72667 13.3333 5.41667 13.3333C6.10667 13.3333 6.66667 13.8933 6.66667 14.5833C6.66667 15.2733 6.10667 15.8333 5.41667 15.8333ZM10 15.8333C9.54 15.8333 9.16667 15.4608 9.16667 15C9.16667 12.7025 7.2975 10.8333 5 10.8333C4.54 10.8333 4.16667 10.4608 4.16667 10C4.16667 9.53917 4.54 9.16667 5 9.16667C8.21667 9.16667 10.8333 11.7842 10.8333 15C10.8333 15.4608 10.46 15.8333 10 15.8333ZM15 15.8333C14.54 15.8333 14.1667 15.4608 14.1667 15C14.1667 9.94583 10.0542 5.83333 5 5.83333C4.54 5.83333 4.16667 5.46083 4.16667 5C4.16667 4.53917 4.54 4.16667 5 4.16667C10.9733 4.16667 15.8333 9.02667 15.8333 15C15.8333 15.4608 15.46 15.8333 15 15.8333Z" fill="currentColor"/>
</svg>
